HIERARCHY
ROOT Hips
{
  OFFSET 5.84602e-005 68.8428 3.50346
  CHANNELS 6 Xposition Yposition Zposition Zrotation Xrotation Yrotation
  JOINT Spine
  {
    OFFSET 0 8.597 -4.6522
    CHANNELS 3 Zrotation Xrotation Yrotation
    JOINT Spine1
    {
      OFFSET 0 7.8454 0.4098
      CHANNELS 3 Zrotation Xrotation Yrotation
      JOINT Spine2
      {
        OFFSET 0 9.7078 -2.1609
        CHANNELS 3 Zrotation Xrotation Yrotation
        JOINT Neck
        {
          OFFSET 0 21.8761 -0.4549
          CHANNELS 3 Zrotation Xrotation Yrotation
          JOINT Head
          {
            OFFSET 0 12.3537 3.3602
            CHANNELS 3 Zrotation Xrotation Yrotation
            End Site
            {
              OFFSET 0.0001 18.9506 0.5657
            }
          }
        }
        JOINT LeftShoulder
        {
          OFFSET 2.2086 21.1115 7.2329
          CHANNELS 3 Zrotation Xrotation Yrotation
          JOINT LeftArm
          {
            OFFSET 13.1193 3.0282 -4.8998
            CHANNELS 3 Zrotation Xrotation Yrotation
            JOINT LeftForeArm
            {
              OFFSET 27.4081 -0.0973053 -0.2375
              CHANNELS 3 Zrotation Xrotation Yrotation
              JOINT LeftHand
              {
                OFFSET 22.8641 0.0662994 -0.1369
                CHANNELS 3 Zrotation Xrotation Yrotation
                JOINT LeftHandIndex1
                {
                  OFFSET 8.8614 0.775009 2.4612
                  CHANNELS 3 Zrotation Xrotation Yrotation
                  JOINT LeftHandIndex2
                  {
                    OFFSET 3.3146 -0.808304 0.5841
                    CHANNELS 3 Zrotation Xrotation Yrotation
                    JOINT LeftHandIndex3
                    {
                      OFFSET 2.2628 -0.552002 0.3989
                      CHANNELS 3 Zrotation Xrotation Yrotation
                      End Site
                      {
                        OFFSET 1.6102 -0.4807 0.2612
                      }
                    }
                  }
                }
                JOINT LeftHandMiddle1
                {
                  OFFSET 8.9937 0.895004 0.2143
                  CHANNELS 3 Zrotation Xrotation Yrotation
                  JOINT LeftHandMiddle2
                  {
                    OFFSET 4.0984 0.0113983 -0.0242
                    CHANNELS 3 Zrotation Xrotation Yrotation
                    JOINT LeftHandMiddle3
                    {
                      OFFSET 2.2716 0.00689697 -0.0138001
                      CHANNELS 3 Zrotation Xrotation Yrotation
                      End Site
                      {
                        OFFSET 2.0404 -0.1441 0.0027
                      }
                    }
                  }
                }
                JOINT LeftHandRing1
                {
                  OFFSET 8.5234 0.597198 -2.0164
                  CHANNELS 3 Zrotation Xrotation Yrotation
                  JOINT LeftHandRing2
                  {
                    OFFSET 3.7188 -0.188293 -0.2328
                    CHANNELS 3 Zrotation Xrotation Yrotation
                    JOINT LeftHandRing3
                    {
                      OFFSET 2.1191 -0.106598 -0.1332
                      CHANNELS 3 Zrotation Xrotation Yrotation
                      End Site
                      {
                        OFFSET 1.8737 -0.2304 -0.0886
                      }
                    }
                  }
                }
                JOINT LeftHandPinky1
                {
                  OFFSET 7.9094 -0.601089 -3.4825
                  CHANNELS 3 Zrotation Xrotation Yrotation
                  JOINT LeftHandPinky2
                  {
                    OFFSET 2.2874 -0.477005 -0.6314
                    CHANNELS 3 Zrotation Xrotation Yrotation
                    JOINT LeftHandPinky3
                    {
                      OFFSET 1.6774 -0.349396 -0.4633
                      CHANNELS 3 Zrotation Xrotation Yrotation
                      End Site
                      {
                        OFFSET 1.4888 -0.4091 -0.3416
                      }
                    }
                  }
                }
                JOINT LeftHandThumb1
                {
                  OFFSET 1.833 -1.3875 1.3896
                  CHANNELS 3 Zrotation Xrotation Yrotation
                  JOINT LeftHandThumb2
                  {
                    OFFSET 3.4129 -1.121 2.5732
                    CHANNELS 3 Zrotation Xrotation Yrotation
                    JOINT LeftHandThumb3
                    {
                      OFFSET 2.2474 -0.804199 1.6192
                      CHANNELS 3 Zrotation Xrotation Yrotation
                      End Site
                      {
                        OFFSET 1.6527 -0.5689 1.1317
                      }
                    }
                  }
                }
              }
            }
          }
        }
        JOINT RightShoulder
        {
          OFFSET -2.2086 21.1115 7.2329
          CHANNELS 3 Zrotation Xrotation Yrotation
          JOINT RightArm
          {
            OFFSET -13.1216 3.0287 -4.9007
            CHANNELS 3 Zrotation Xrotation Yrotation
            JOINT RightForeArm
            {
              OFFSET -27.4081 -0.0973053 -0.2375
              CHANNELS 3 Zrotation Xrotation Yrotation
              JOINT RightHand
              {
                OFFSET -22.8641 0.0664063 -0.1369
                CHANNELS 3 Zrotation Xrotation Yrotation
                JOINT RightHandIndex1
                {
                  OFFSET -8.8614 0.774994 2.4612
                  CHANNELS 3 Zrotation Xrotation Yrotation
                  JOINT RightHandIndex2
                  {
                    OFFSET -3.3146 -0.808304 0.5841
                    CHANNELS 3 Zrotation Xrotation Yrotation
                    JOINT RightHandIndex3
                    {
                      OFFSET -2.2628 -0.552002 0.3989
                      CHANNELS 3 Zrotation Xrotation Yrotation
                      End Site
                      {
                        OFFSET -1.6102 -0.4807 0.2612
                      }
                    }
                  }
                }
                JOINT RightHandMiddle1
                {
                  OFFSET -8.9937 0.894989 0.2143
                  CHANNELS 3 Zrotation Xrotation Yrotation
                  JOINT RightHandMiddle2
                  {
                    OFFSET -4.0984 0.0113983 -0.0242
                    CHANNELS 3 Zrotation Xrotation Yrotation
                    JOINT RightHandMiddle3
                    {
                      OFFSET -2.2716 0.00691223 -0.0138001
                      CHANNELS 3 Zrotation Xrotation Yrotation
                      End Site
                      {
                        OFFSET -2.0404 -0.1441 0.0027
                      }
                    }
                  }
                }
                JOINT RightHandRing1
                {
                  OFFSET -8.5234 0.597198 -2.0164
                  CHANNELS 3 Zrotation Xrotation Yrotation
                  JOINT RightHandRing2
                  {
                    OFFSET -3.7188 -0.188309 -0.2328
                    CHANNELS 3 Zrotation Xrotation Yrotation
                    JOINT RightHandRing3
                    {
                      OFFSET -2.1191 -0.106598 -0.1332
                      CHANNELS 3 Zrotation Xrotation Yrotation
                      End Site
                      {
                        OFFSET -1.8737 -0.2304 -0.0886
                      }
                    }
                  }
                }
                JOINT RightHandPinky1
                {
                  OFFSET -7.9094 -0.601105 -3.4825
                  CHANNELS 3 Zrotation Xrotation Yrotation
                  JOINT RightHandPinky2
                  {
                    OFFSET -2.2874 -0.477005 -0.6314
                    CHANNELS 3 Zrotation Xrotation Yrotation
                    JOINT RightHandPinky3
                    {
                      OFFSET -1.6774 -0.349396 -0.4633
                      CHANNELS 3 Zrotation Xrotation Yrotation
                      End Site
                      {
                        OFFSET -1.4888 -0.4091 -0.3416
                      }
                    }
                  }
                }
                JOINT RightHandThumb1
                {
                  OFFSET -1.833 -1.38751 1.3896
                  CHANNELS 3 Zrotation Xrotation Yrotation
                  JOINT RightHandThumb2
                  {
                    OFFSET -3.41299 -1.12099 2.5732
                    CHANNELS 3 Zrotation Xrotation Yrotation
                    JOINT RightHandThumb3
                    {
                      OFFSET -2.24741 -0.804108 1.6192
                      CHANNELS 3 Zrotation Xrotation Yrotation
                      End Site
                      {
                        OFFSET -1.6527 -0.5689 1.1317
                      }
                    }
                  }
                }
              }
            }
          }
        }
      }
    }
  }
  JOINT RightUpLeg
  {
    OFFSET -9.1966 3.8861 -0.7581
    CHANNELS 3 Zrotation Xrotation Yrotation
    JOINT RightLeg
    {
      OFFSET -0.7359 -41.0265 0
      CHANNELS 3 Zrotation Xrotation Yrotation
      JOINT RightFoot
      {
        OFFSET 0 -40.2855 0
        CHANNELS 3 Zrotation Xrotation Yrotation
        JOINT RightToeBase
        {
          OFFSET 0 -5.6122 11.7359
          CHANNELS 3 Zrotation Xrotation Yrotation
          End Site
          {
            OFFSET 0 0 7.8731
          }
        }
      }
    }
  }
  JOINT LeftUpLeg
  {
    OFFSET 9.1965 3.8864 -0.7581
    CHANNELS 3 Zrotation Xrotation Yrotation
    JOINT LeftLeg
    {
      OFFSET 0.7359 -41.0268 0
      CHANNELS 3 Zrotation Xrotation Yrotation
      JOINT LeftFoot
      {
        OFFSET 0 -40.2855 0
        CHANNELS 3 Zrotation Xrotation Yrotation
        JOINT LeftToeBase
        {
          OFFSET 0 -5.6122 11.7359
          CHANNELS 3 Zrotation Xrotation Yrotation
          End Site
          {
            OFFSET 0 0 7.8731
          }
        }
      }
    }
  }
}
MOTION
Frames:	5
Frame Time:	0.0333333
0.0165681 20.3536 6.67892 89.3125 -89.7452 -90.4204 -1.68549 -7.66853 -0.54765 -3.49319 -15.3169 -1.34334 -3.49318 -15.3169 -1.34334 -19.2194 17.697 7.22736 -8.54884 -10.9461 -1.99716 -36.5132 -11.4307 12.5987 -28.4918 29.4889 -9.69565 24.7431 -11.6262 -103.354 42.7705 -16.77 4.05716 -3.58403e-008 -1.29862e-006 -3.71239e-006 3.18055e-015 7.95139e-016 -0 1.56701e-006 -5.41592e-006 -9.57972e-006 -3.58403e-008 -1.29862e-006 -3.71239e-006 -0.0146164 -9.31887e-005 2.73197e-007 1.34822e-006 -3.8035e-006 -4.91976e-006 -3.58403e-008 -1.29862e-006 -3.71239e-006 -0.0187823 -0.00117254 5.98735e-005 1.34832e-006 -3.80328e-006 -4.91991e-006 -3.58403e-008 -1.29862e-006 -3.71239e-006 -0.0122935 -0.00325092 0.000679789 1.34798e-006 -3.80349e-006 -4.91974e-006 -3.58403e-008 -1.29862e-006 -3.71239e-006 3.18055e-015 7.95139e-016 -0 1.56701e-006 -5.41592e-006 -9.57972e-006 16.9092 3.48612 21.0311 56.719 -7.71548 23.7548 -17.2045 0.719699 80.6472 -48.79 -37.8297 -6.33774 3.18055e-015 -2.38542e-014 -9.54166e-015 3.18055e-015 -2.38542e-014 -1.11319e-014 6.36111e-015 -2.3059e-014 -1.11319e-014 3.18055e-015 -2.38542e-014 -9.54166e-015 0.0149738 -8.84108e-005 -2.44888e-006 3.18055e-015 -3.97569e-015 1.59028e-015 3.18055e-015 -2.38542e-014 -9.54166e-015 0.0189742 -0.00119259 -6.31385e-005 -6.36111e-015 -7.95139e-016 3.18055e-015 3.18055e-015 -2.38542e-014 -9.54166e-015 0.012286 -0.00325377 -0.000681352 3.18055e-015 -2.38542e-015 -0 3.18055e-015 -2.38542e-014 -9.54166e-015 3.18055e-015 -2.38542e-014 -1.11319e-014 6.36111e-015 -2.3059e-014 -1.11319e-014 -145.693 -49.1917 -156.487 -165.411 41.9631 -140.817 -11.0387 44.3002 -4.83559 5.82667e-007 -4.74765e-007 1.52622e-006 145.415 -49.5714 156.495 165.246 42.3287 140.962 13.5739 37.2839 5.81907 1.03925e-006 6.88898e-007 2.22744e-006 
0.0165681 20.3536 6.67892 89.3125 -89.7452 -90.4204 -1.68549 -7.66853 -0.54765 -3.49319 -15.3169 -1.34334 -3.49318 -15.3169 -1.34334 -19.1255 17.625 7.18057 -8.65829 -11.2394 -2.0442 -36.5132 -11.4307 12.5987 -28.3771 29.4717 -9.8545 24.9242 -11.5897 -103.159 42.5862 -16.924 4.11361 -1.38776e-006 2.50368e-006 1.21153e-006 -6.28779e-006 -4.20877e-007 3.56571e-006 -1.38776e-006 2.50368e-006 1.21153e-006 -1.38776e-006 2.50368e-006 1.21153e-006 -0.0146362 -9.79827e-005 3.7522e-006 -1.38794e-006 2.50353e-006 1.21185e-006 -1.38776e-006 2.50368e-006 1.21153e-006 -0.0187837 -0.00118328 5.61275e-005 -1.38798e-006 2.50347e-006 1.21196e-006 -1.38776e-006 2.50368e-006 1.21153e-006 -0.0122957 -0.00325602 0.000677895 -1.38786e-006 2.50352e-006 1.21185e-006 -1.38776e-006 2.50368e-006 1.21153e-006 -6.28779e-006 -4.20877e-007 3.56571e-006 -1.38776e-006 2.50368e-006 1.21153e-006 16.9092 3.48612 21.0311 56.4694 -7.6022 23.8372 -17.1369 0.766208 80.3309 -48.6577 -37.8297 -6.33774 6.36111e-015 5.56597e-015 -0 6.36111e-015 3.97569e-015 -3.18055e-015 3.18055e-015 3.18055e-015 -0 6.36111e-015 5.56597e-015 -0 0.014959 -8.48225e-005 -2.95023e-006 -1.59028e-014 -4.77083e-015 -4.77083e-015 6.36111e-015 5.56597e-015 -0 0.0189764 -0.00119197 -6.11017e-005 6.36111e-015 2.38542e-015 3.18055e-015 6.36111e-015 5.56597e-015 -0 0.0122824 -0.00325141 -0.000682612 -3.18055e-015 -2.38542e-015 -1.59028e-015 6.36111e-015 5.56597e-015 -0 6.36111e-015 3.97569e-015 -3.18055e-015 3.18055e-015 3.18055e-015 -0 -145.693 -49.1917 -156.486 -165.411 41.9631 -140.817 -11.0387 44.3002 -4.8356 3.92645e-006 -1.00513e-006 1.124e-006 145.415 -49.5714 156.495 165.246 42.3287 140.962 13.5739 37.2839 5.81907 1.03925e-006 6.88898e-007 2.22744e-006 
0.0165681 20.3536 6.67892 89.3125 -89.7452 -90.4204 -1.68549 -7.66853 -0.54765 -3.49319 -15.3169 -1.34334 -3.49318 -15.3169 -1.34334 -19.0316 17.5529 7.13388 -8.76803 -11.5325 -2.09184 -36.5132 -11.4307 12.5987 -28.2624 29.4542 -10.0133 25.1052 -11.5526 -102.965 42.4017 -17.0783 4.16963 1.04737e-007 1.14425e-006 3.24259e-006 4.41391e-031 -3.97569e-015 6.36111e-015 3.18055e-015 -4.77083e-015 3.18055e-015 1.04737e-007 1.14425e-006 3.24259e-006 -0.0146001 -8.55046e-005 7.35537e-006 3.18055e-015 -7.95139e-016 -3.18055e-015 1.04737e-007 1.14425e-006 3.24259e-006 -0.0187321 -0.00117283 5.16768e-005 -3.18055e-015 1.59028e-015 -3.18055e-015 1.04737e-007 1.14425e-006 3.24259e-006 -0.0122702 -0.00324895 0.000686297 -0 -4.77083e-015 -0 1.04737e-007 1.14425e-006 3.24259e-006 4.41391e-031 -3.97569e-015 6.36111e-015 3.18055e-015 -4.77083e-015 3.18055e-015 16.9092 3.48612 21.0311 56.2194 -7.48912 23.9201 -17.069 0.812423 80.014 -48.5254 -37.8297 -6.33777 3.96867e-006 3.84797e-007 3.10637e-007 3.96866e-006 3.84797e-007 3.10637e-007 -6.36111e-015 -7.95139e-016 -1.59028e-015 3.96867e-006 3.84797e-007 3.10637e-007 0.0150178 -9.66669e-005 -1.66888e-006 -3.18055e-015 -1.59028e-015 -1.59028e-015 3.96867e-006 3.84797e-007 3.10637e-007 0.0189884 -0.00119308 -6.33139e-005 -3.18055e-015 3.97569e-015 -1.59028e-015 3.96867e-006 3.84797e-007 3.10637e-007 0.0122562 -0.00324338 -0.0006805 3.18055e-015 1.59028e-015 -0 3.96867e-006 3.84797e-007 3.10637e-007 3.96866e-006 3.84797e-007 3.10637e-007 -6.36111e-015 -7.95139e-016 -1.59028e-015 -145.693 -49.1917 -156.486 -165.411 41.9631 -140.817 -11.0387 44.3002 -4.8356 3.92645e-006 -1.00513e-006 1.124e-006 145.415 -49.5714 156.495 165.246 42.3287 140.962 13.5739 37.2839 5.81907 1.03925e-006 6.88898e-007 2.22744e-006 
0.0165681 20.3536 6.67892 89.3125 -89.7452 -90.4204 -1.68549 -7.66853 -0.54765 -3.49319 -15.3169 -1.34334 -3.49318 -15.3169 -1.34334 -18.9379 17.4807 7.08734 -8.87808 -11.8254 -2.14007 -36.5132 -11.4307 12.5987 -28.1477 29.4364 -10.1721 25.2863 -11.5149 -102.771 42.217 -17.2329 4.22523 9.54166e-015 1.59028e-015 3.18055e-015 6.36111e-015 -3.18055e-015 -0 6.36111e-015 -4.77083e-015 -6.36111e-015 9.54166e-015 1.59028e-015 3.18055e-015 -0.0146398 -8.59989e-005 1.99495e-006 -6.36111e-015 6.36111e-015 3.18055e-015 9.54166e-015 1.59028e-015 3.18055e-015 -0.0187456 -0.00117228 6.03294e-005 -6.36111e-015 1.59028e-015 -3.18055e-015 9.54166e-015 1.59028e-015 3.18055e-015 -0.012254 -0.00324011 0.000674743 6.17947e-031 -1.11319e-014 3.18055e-015 9.54166e-015 1.59028e-015 3.18055e-015 6.36111e-015 -3.18055e-015 -0 6.36111e-015 -4.77083e-015 -6.36111e-015 16.9092 3.48612 21.0311 55.9689 -7.37627 24.0036 -17.0007 0.858335 79.6967 -48.3931 -37.8297 -6.33778 -6.72189e-007 1.42355e-006 7.25048e-007 -3.18055e-015 -4.77083e-015 -1.59028e-015 -6.36111e-015 -3.18055e-015 -0 -6.72189e-007 1.42355e-006 7.25048e-007 0.0149962 -8.9881e-005 -4.50896e-006 1.76556e-031 -3.18055e-015 3.18055e-015 -6.72189e-007 1.42355e-006 7.25048e-007 0.0190109 -0.00119058 -5.93025e-005 8.82781e-032 -1.59028e-015 3.18055e-015 -6.72189e-007 1.42355e-006 7.25048e-007 0.0122542 -0.00324238 -0.000674315 -1.32417e-031 4.77083e-015 1.59028e-015 -6.72189e-007 1.42355e-006 7.25048e-007 -3.18055e-015 -4.77083e-015 -1.59028e-015 -6.36111e-015 -3.18055e-015 -0 -145.693 -49.1917 -156.486 -165.411 41.9631 -140.817 -11.0387 44.3002 -4.8356 3.92645e-006 -1.00513e-006 1.124e-006 145.415 -49.5714 156.495 165.246 42.3287 140.962 13.5739 37.2839 5.81907 1.03925e-006 6.88898e-007 2.22744e-006 
0.0165681 20.3536 6.67892 89.3125 -89.7452 -90.4204 -1.68549 -7.66853 -0.54765 -3.49319 -15.3169 -1.34334 -3.49318 -15.3169 -1.34334 -18.8442 17.4085 7.04094 -8.98844 -12.1181 -2.1889 -36.5132 -11.4307 12.5987 -28.0331 29.4183 -10.3309 25.4673 -11.4765 -102.577 42.0322 -17.3878 4.28041 4.68558e-008 -1.26106e-007 -4.76572e-007 -4.41391e-032 7.95139e-016 3.18055e-015 6.48909e-010 -1.2729e-006 -3.72368e-006 4.68558e-008 -1.26106e-007 -4.76572e-007 -0.0145852 -8.6537e-005 -1.00637e-006 1.00248e-009 -1.27242e-006 -3.72384e-006 4.68558e-008 -1.26106e-007 -4.76572e-007 -0.0187656 -0.00117574 6.17058e-005 1.06851e-009 -1.27226e-006 -3.72389e-006 4.68558e-008 -1.26106e-007 -4.76572e-007 -0.0122363 -0.00323748 0.000668365 8.35242e-010 -1.27242e-006 -3.72383e-006 4.68558e-008 -1.26106e-007 -4.76572e-007 -4.41391e-032 7.95139e-016 3.18055e-015 6.48909e-010 -1.2729e-006 -3.72368e-006 16.9092 3.48612 21.0311 55.7181 -7.26364 24.0877 -16.932 0.903916 79.3788 -48.2607 -37.8297 -6.33777 3.18055e-015 -3.97569e-015 -4.77083e-015 3.18055e-015 -3.97569e-015 -4.77083e-015 -3.18055e-015 -3.97569e-015 -6.36111e-015 3.18055e-015 -3.97569e-015 -4.77083e-015 0.0150286 -9.62713e-005 3.01972e-007 3.18055e-015 -1.51076e-014 -9.54166e-015 3.18055e-015 -3.97569e-015 -4.77083e-015 0.0190042 -0.00118865 -6.95908e-005 6.36111e-015 7.95139e-016 -0 3.18055e-015 -3.97569e-015 -4.77083e-015 0.0122911 -0.00324958 -0.000677115 3.18055e-015 3.18055e-015 -0 3.18055e-015 -3.97569e-015 -4.77083e-015 3.18055e-015 -3.97569e-015 -4.77083e-015 -3.18055e-015 -3.97569e-015 -6.36111e-015 -145.693 -49.1917 -156.486 -165.411 41.9631 -140.817 -11.0387 44.3002 -4.8356 3.92645e-006 -1.00513e-006 1.124e-006 145.415 -49.5714 156.495 165.246 42.3287 140.962 13.5739 37.2839 5.81907 1.03925e-006 6.88898e-007 2.22744e-006 
